<!-- icon666.com - MILLIONS vector ICONS FREE --><svg enable-background="new 0 0 64 64" viewBox="0 0 64 64" xmlns="http://www.w3.org/2000/svg"><g id="Layer_4"><g><path d="m31.717 31.861c-.813 0-1.459.328-2.032 1.031-.623.767-.952 2.278-.952 4.371 0 1.961.333 3.363.99 4.166.599.733 1.275 1.075 2.129 1.075.957 0 1.704-.353 2.351-1.111.688-.808 1.038-2.278 1.038-4.371 0-1.857-.356-3.212-1.061-4.029-.665-.772-1.448-1.132-2.463-1.132z" fill="#4589c9"></path><path d="m59.08 16.42v31.16c0 6.34-5.16 11.5-11.5 11.5h-31.16c-6.34 0-11.5-5.16-11.5-11.5v-31.16c0-6.34 5.16-11.5 11.5-11.5h31.16c6.34 0 11.5 5.16 11.5 11.5z" fill="#4589c9"></path><path d="m47.583 3.917h-31.166c-6.893 0-12.5 5.607-12.5 12.5v31.166c0 6.893 5.607 12.5 12.5 12.5h31.166c6.893 0 12.5-5.607 12.5-12.5v-31.166c0-6.893-5.607-12.5-12.5-12.5zm11.5 43.666c0 6.341-5.159 11.5-11.5 11.5h-31.166c-6.341 0-11.5-5.159-11.5-11.5v-31.166c0-6.341 5.159-11.5 11.5-11.5h31.166c6.341 0 11.5 5.159 11.5 11.5z" fill="#2d368c"></path><path d="m47.697 11.492h-11.039c-.275 0-.5.224-.5.5v11.432c0 .188-.105.36-.272.445-.168.086-.367.07-.521-.04-.69-.5-1.433-.915-2.208-1.234-1.442-.596-3.065-.898-4.823-.898-3.622 0-6.651 1.321-9.006 3.925-2.339 2.588-3.525 6.351-3.525 11.184 0 4.311 1.064 8.03 3.164 11.055 2.14 3.083 5.273 4.646 9.313 4.646 2.004 0 3.854-.436 5.5-1.295.747-.396 1.512-.985 2.334-1.797.145-.142.362-.181.544-.105.187.078.308.26.308.461v1.592c0 .276.225.5.5.5h10.232c.275 0 .5-.224.5-.5v-39.371c-.001-.276-.225-.5-.501-.5zm-12.733 30.549c-.84.984-1.857 1.463-3.112 1.463-1.145 0-2.121-.485-2.903-1.441-.807-.986-1.216-2.6-1.216-4.799 0-2.358.396-4.041 1.177-5.002.756-.929 1.701-1.4 2.808-1.4 1.31 0 2.363.483 3.221 1.478.864 1.004 1.303 2.579 1.303 4.682-.002 2.336-.431 4.025-1.278 5.019z" fill="#c8e3f6" style="fill: rgb(255, 71, 71);"></path><g fill="#2d368c"><path d="m47.697 10.492h-11.039c-.827 0-1.5.673-1.5 1.5v10.5c-.521-.316-1.063-.591-1.62-.821-1.563-.646-3.314-.974-5.204-.974-3.916 0-7.196 1.432-9.748 4.254-2.511 2.777-3.783 6.766-3.783 11.855 0 4.519 1.124 8.43 3.342 11.625 2.339 3.368 5.748 5.076 10.135 5.076 2.167 0 4.173-.474 5.966-1.41.566-.301 1.135-.693 1.72-1.188v.454c0 .827.673 1.5 1.5 1.5h10.232c.827 0 1.5-.673 1.5-1.5v-39.371c-.001-.827-.674-1.5-1.501-1.5zm.5 40.871c0 .276-.225.5-.5.5h-10.232c-.275 0-.5-.224-.5-.5v-1.592c0-.202-.121-.384-.308-.461-.182-.076-.399-.036-.544.105-.822.812-1.587 1.401-2.334 1.797-1.646.859-3.496 1.295-5.5 1.295-4.039 0-7.173-1.563-9.313-4.646-2.1-3.024-3.164-6.744-3.164-11.055 0-4.833 1.187-8.596 3.525-11.184 2.354-2.604 5.384-3.925 9.006-3.925 1.758 0 3.381.302 4.823.898.775.319 1.518.734 2.208 1.234.153.11.353.126.521.04.167-.085.272-.257.272-.445v-11.432c0-.276.225-.5.5-.5h11.039c.275 0 .5.224.5.5v39.371z" fill="#2d368c"></path><path d="m31.717 30.861c-1.106 0-2.052.471-2.808 1.4-.781.961-1.177 2.644-1.177 5.002 0 2.199.409 3.813 1.216 4.799.782.957 1.759 1.441 2.903 1.441 1.255 0 2.272-.479 3.112-1.463.847-.994 1.276-2.683 1.276-5.02 0-2.103-.438-3.678-1.303-4.682-.856-.993-1.91-1.477-3.219-1.477zm2.485 10.532c-.646.758-1.394 1.111-2.351 1.111-.854 0-1.53-.341-2.129-1.075-.657-.802-.99-2.204-.99-4.166 0-2.093.329-3.604.952-4.371.573-.704 1.219-1.031 2.032-1.031 1.016 0 1.798.359 2.463 1.131.704.817 1.061 2.172 1.061 4.029 0 2.093-.349 3.563-1.038 4.372z" fill="#2d368c"></path></g></g></g></svg>